<?xml version="1.0" encoding="UTF-8"?>
<svg version="1.1" xmlns="http://www.w3.org/2000/svg" width="231" height="48">
<path d="M0 0 C0.83724609 -0.020625 1.67449219 -0.04125 2.53710938 -0.0625 C3.33826172 -0.06765625 4.13941406 -0.0728125 4.96484375 -0.078125 C6.07073853 -0.09214355 6.07073853 -0.09214355 7.19897461 -0.10644531 C7.81393799 0.01118164 8.42890137 0.12880859 9.0625 0.25 C9.7225 1.24 10.3825 2.23 11.0625 3.25 C13.7530528 2.02992056 13.7530528 2.02992056 16.0625 0.25 C21.98850678 -0.50755138 28.1955568 -1.18618596 34.0625 0.25 C37.86000065 3.30717444 39.80512361 6.55170579 41.0625 11.25 C40.79493302 16.56869832 38.74590916 19.37645919 35.13671875 23.05078125 C34.6338887 23.57262497 34.13105865 24.09446869 33.61299133 24.63212585 C32.54617288 25.72854703 31.47244297 26.81828054 30.39233398 27.90161133 C28.76375703 29.54858755 27.18268469 31.23322503 25.59960938 32.92382812 C16.99186113 41.82799416 16.99186113 41.82799416 10.5390625 42.484375 C8.37904888 42.45126931 6.21962984 42.36638594 4.0625 42.25 C2.536486 42.25346788 1.01047501 42.26755451 -0.51538086 42.28979492 C-4.86226279 42.34449116 -9.20170007 42.30502253 -13.5480957 42.2277832 C-15.35817256 42.20079642 -17.16848263 42.18659606 -18.97875977 42.18481445 C-21.62895216 42.18171146 -24.27610998 42.13999402 -26.92578125 42.08984375 C-28.12754753 42.09877907 -28.12754753 42.09877907 -29.35359192 42.1078949 C-34.82963361 41.94398622 -37.64834867 40.48623049 -41.62541199 36.72828674 C-44.58070332 33.39865644 -44.32375809 30.00012257 -44.29296875 25.7265625 C-43.75465934 21.97614308 -41.86413115 20.49601925 -38.9375 18.25 C-38.32841797 17.42242188 -38.32841797 17.42242188 -37.70703125 16.578125 C-34.89029128 14.46401553 -32.33852075 15.50191845 -28.9375 15.9375 C-25.20762792 16.21246142 -22.23528104 16.24115058 -19.17675781 13.90527344 C-15.54202359 10.07547297 -12.72914583 5.71332308 -9.9375 1.25 C-7.7712132 -0.9162868 -2.99865783 0.01838258 0 0 Z M-7.5 8.75 C-7.974375 9.575 -8.44875 10.4 -8.9375 11.25 C-3.0260256 12.02313045 2.1939592 12.39819277 8.0625 11.25 C6.67160963 8.5683856 6.67160963 8.5683856 4.0625 6.25 C-0.73259276 5.1062164 -3.92859189 5.2656994 -7.5 8.75 Z M16.0625 10.25 C16.3925 10.91 16.7225 11.57 17.0625 12.25 C14.7525 12.25 12.4425 12.25 10.0625 12.25 C13.6111135 14.61574234 14.6389525 14.35865265 18.75 13.875 C19.74386719 13.76414062 20.73773438 13.65328125 21.76171875 13.5390625 C22.52097656 13.44367187 23.28023437 13.34828125 24.0625 13.25 C24.0625 16.22 24.0625 19.19 24.0625 22.25 C29.59259333 17.74982522 29.59259333 17.74982522 34.0625 12.25 C32.77286916 9.05996083 32.77286916 9.05996083 30.0625 6.25 C24.4341885 4.95978906 19.52785791 5.20947941 16.0625 10.25 Z M14.0625 15.25 C15.0625 17.25 15.0625 17.25 15.0625 17.25 Z M-12.9375 17.25 C-11.6175 18.57 -10.2975 19.89 -8.9375 21.25 C-7.9475 19.93 -6.9575 18.61 -5.9375 17.25 C-8.2475 17.25 -10.5575 17.25 -12.9375 17.25 Z M4.0625 17.25 C2.68017557 18.87626404 1.34312485 20.5425002 0.0625 22.25 C2.3725 22.91 4.6825 23.57 7.0625 24.25 C8.3825 22.93 9.7025 21.61 11.0625 20.25 C7.80852492 17.99114676 7.80852492 17.99114676 4.0625 17.25 Z M-14.9375 19.25 C-16.3231841 20.89055622 -17.67139665 22.56288463 -19 24.25 C-19.73347656 25.178125 -20.46695312 26.10625 -21.22265625 27.0625 C-21.78855469 27.784375 -22.35445312 28.50625 -22.9375 29.25 C-24.5875 28.92 -26.2375 28.59 -27.9375 28.25 C-27.0625 23.5 -27.0625 23.5 -25.9375 21.25 C-30.92317094 20.84182245 -30.92317094 20.84182245 -35.375 22.8125 C-37.53210908 26.17759017 -37.50738508 28.33204004 -36.9375 32.25 C-34.50296774 34.91399481 -33.01393927 35.24196845 -29.39404297 35.62231445 C-27.98931458 35.63529729 -26.58435994 35.63132934 -25.1796875 35.61328125 C-24.06329391 35.61402901 -24.06329391 35.61402901 -22.92434692 35.61479187 C-21.35595012 35.612457 -19.78754917 35.60276304 -18.21923828 35.58618164 C-15.81378896 35.56251268 -13.40944303 35.56563407 -11.00390625 35.57226562 C-9.47916004 35.56669107 -7.9544185 35.55958259 -6.4296875 35.55078125 C-5.34843094 35.55214836 -5.34843094 35.55214836 -4.24533081 35.55354309 C-0.13886317 35.61502878 -0.13886317 35.61502878 3.0625 33.25 C5.375 33.5625 5.375 33.5625 8.0625 34.25 C8.990625 34.435625 9.91875 34.62125 10.875 34.8125 C11.596875 34.956875 12.31875 35.10125 13.0625 35.25 C14.3825 33.6 15.7025 31.95 17.0625 30.25 C15.7425 30.25 14.4225 30.25 13.0625 30.25 C12.5675 29.26 12.5675 29.26 12.0625 28.25 C11.7325 28.58 11.4025 28.91 11.0625 29.25 C6.89785074 29.41017882 3.11523808 29.23248196 -0.9375 28.25 C-0.9375 28.91 -0.9375 29.57 -0.9375 30.25 C-5.2275 30.25 -9.5175 30.25 -13.9375 30.25 C-13.9375 26.62 -13.9375 22.99 -13.9375 19.25 C-14.2675 19.25 -14.5975 19.25 -14.9375 19.25 Z M19.0625 22.25 C18.7325 22.91 18.4025 23.57 18.0625 24.25 C19.7125 24.25 21.3625 24.25 23.0625 24.25 C22.7325 23.59 22.4025 22.93 22.0625 22.25 C21.0725 22.25 20.0825 22.25 19.0625 22.25 Z " fill="#0560A2" transform="translate(48.9375,2.75)"/>
<path d="M0 0 C11.53557692 -0.37211538 11.53557692 -0.37211538 13.88671875 1.51171875 C14.25410156 2.00285156 14.62148437 2.49398438 15 3 C15.33 2.01 15.66 1.02 16 0 C20 0 24 0 28 0 C30.00915697 -0.06378276 32.01831138 -0.12771889 34.02734375 -0.1953125 C36 0 36 0 39 2 C39 1.34 39 0.68 39 0 C41.375 -0.1875 41.375 -0.1875 44 0 C44.66 0.99 45.32 1.98 46 3 C46.39832031 2.50886719 46.79664063 2.01773437 47.20703125 1.51171875 C49.5121755 -0.43183425 50.7196719 -0.316536 53.6875 -0.1875 C54.89986328 -0.14689453 54.89986328 -0.14689453 56.13671875 -0.10546875 C56.75160156 -0.07066406 57.36648437 -0.03585937 58 0 C58.66 2.31 59.32 4.62 60 7 C60.66 7 61.32 7 62 7 C62.33 5.02 62.66 3.04 63 1 C65.475 0.505 65.475 0.505 68 0 C67.40429986 4.78766406 65.98753762 8.9223063 64.0625 13.3125 C63.79759766 13.94478516 63.53269531 14.57707031 63.25976562 15.22851562 C61.25352444 19.87323778 61.25352444 19.87323778 59 21 C57.00039988 21.039992 54.99952758 21.04346799 53 21 C53.33 19.35 53.66 17.7 54 16 C54.99 16 55.98 16 57 16 C56.50269348 11.02693484 55.44697666 7.36200187 53 3 C51.26333273 5.19832713 51.26333273 5.19832713 50 8 C50.69485264 10.78223378 50.69485264 10.78223378 52 13 C52.66 13 53.32 13 54 13 C54 13.66 54 14.32 54 15 C49.44615385 15.36923077 49.44615385 15.36923077 47.1875 13.5 C46.5996875 12.7575 46.5996875 12.7575 46 12 C45.34 12.99 44.68 13.98 44 15 C42.03102041 15.06563265 40.05790682 15.11631586 38.08984375 15.02734375 C35.7970868 14.91944718 35.7970868 14.91944718 32.8125 15.6875 C29.2190681 16.08677021 27.81769349 15.17364926 25 13 C23.64560332 10.29120665 23.93498549 7.99066732 24 5 C23.34 5 22.68 5 22 5 C21.67 8.3 21.34 11.6 21 15 C19.35 15 17.7 15 16 15 C15.67 14.34 15.34 13.68 15 13 C13.9171875 13.7734375 13.9171875 13.7734375 12.8125 14.5625 C9.5804634 16.21442982 8.38391693 16.06351675 5 15 C4.67 16.98 4.34 18.96 4 21 C2.68 21 1.36 21 0 21 C0 14.07 0 7.14 0 0 Z M39 2 C39.33 4.97 39.66 7.94 40 11 C40.99 10.34 41.98 9.68 43 9 C42.37611108 5.38144425 41.8290723 4.8290723 39 2 Z M6 4 C4.70366379 5.06645115 4.70366379 5.06645115 4.9375 7.5625 C4.958125 8.366875 4.97875 9.17125 5 10 C6.65614657 10.38218767 8.32457024 10.71395102 10 11 C11.29633621 9.93354885 11.29633621 9.93354885 11.0625 7.4375 C11.041875 6.633125 11.02125 5.82875 11 5 C9.34385343 4.61781233 7.67542976 4.28604898 6 4 Z M30 4 C28.71677453 5.0595877 28.71677453 5.0595877 28.875 7.5 C28.71677453 9.9404123 28.71677453 9.9404123 30 11 C31.66617115 11.04063832 33.33388095 11.042721 35 11 C35.67958603 8.60280568 35.67958603 8.60280568 36 6 C35.34 5.34 34.68 4.68 34 4 C32.68 4 31.36 4 30 4 Z " fill="#075996" transform="translate(159,16)"/>
<path d="M0 0 C1.65 0 3.3 0 5 0 C5.33 0.99 5.66 1.98 6 3 C6.79664062 2.26330078 6.79664062 2.26330078 7.609375 1.51171875 C10.68015462 -0.43009777 12.64921396 -0.30491694 16.25 -0.1875 C17.86648437 -0.14689453 17.86648437 -0.14689453 19.515625 -0.10546875 C20.33546875 -0.07066406 21.1553125 -0.03585937 22 0 C22.13517903 2.75164432 22.23415251 5.49664521 22.3125 8.25 C22.35439453 9.02730469 22.39628906 9.80460937 22.43945312 10.60546875 C22.56285282 16.38057424 22.56285282 16.38057424 19.70703125 19.5234375 C16.22773319 21.42123644 13.90915477 21.43435053 10 21 C9.01 20.34 8.02 19.68 7 19 C7.33 18.01 7.66 17.02 8 16 C10.97 16.33 13.94 16.66 17 17 C16.67 16.34 16.34 15.68 16 15 C15.0925 15.061875 14.185 15.12375 13.25 15.1875 C9.71017358 14.98327924 8.55068845 14.35448165 6 12 C5.67 12.99 5.34 13.98 5 15 C3.35 15 1.7 15 0 15 C0 10.05 0 5.1 0 0 Z M11 4 C10.32041397 6.39719432 10.32041397 6.39719432 10 9 C10.66 9.66 11.32 10.32 12 11 C14.60280568 10.67958603 14.60280568 10.67958603 17 10 C17.042721 8.33388095 17.04063832 6.66617115 17 5 C15.93354885 3.70366379 15.93354885 3.70366379 13.4375 3.9375 C12.633125 3.958125 11.82875 3.97875 11 4 Z " fill="#075894" transform="translate(120,16)"/>
<path d="M0 0 C3.27170847 -0.10775984 6.53988546 -0.18719451 9.8125 -0.25 C10.74126953 -0.28351562 11.67003906 -0.31703125 12.62695312 -0.3515625 C13.9659668 -0.37089844 13.9659668 -0.37089844 15.33203125 -0.390625 C16.56530151 -0.4220459 16.56530151 -0.4220459 17.82348633 -0.45410156 C20 0 20 0 21.7734375 1.84960938 C23.36243157 4.63540948 23.30121049 6.56610635 23.1875 9.75 C23.16042969 10.73484375 23.13335937 11.7196875 23.10546875 12.734375 C23.07066406 13.48203125 23.03585938 14.2296875 23 15 C21.35 15 19.7 15 18 15 C18 11.37 18 7.74 18 4 C16.68 4 15.36 4 14 4 C14 7.63 14 11.26 14 15 C12.35 15 10.7 15 9 15 C8.67 11.7 8.34 8.4 8 5 C7.01 5 6.02 5 5 5 C4.67 8.3 4.34 11.6 4 15 C2.68 15 1.36 15 0 15 C0 10.05 0 5.1 0 0 Z " fill="#065591" transform="translate(96,16)"/>
<path d="M0 0 C2.60722482 0.53616317 3.44242231 1.19053638 4.9375 3.3984375 C5.23046875 6.31640625 5.23046875 6.31640625 5.125 9.5859375 C5.09792969 10.67261719 5.07085937 11.75929688 5.04296875 12.87890625 C5.00816406 13.71035156 4.97335938 14.54179687 4.9375 15.3984375 C3.35736783 15.64872561 1.77307694 15.87284696 0.1875 16.0859375 C-1.13507813 16.27736328 -1.13507813 16.27736328 -2.484375 16.47265625 C-5.65983056 16.38124162 -6.82941206 15.61094398 -9.0625 13.3984375 C-9.4375 10.8359375 -9.4375 10.8359375 -9.0625 8.3984375 C-7.0625 6.3984375 -7.0625 6.3984375 -5.0625 5.3984375 C-6.3825 4.7384375 -7.7025 4.0784375 -9.0625 3.3984375 C-6.66976663 -0.19066255 -3.95575266 0.04495173 0 0 Z M-4.0625 9.3984375 C-4.0625 10.3884375 -4.0625 11.3784375 -4.0625 12.3984375 C-2.08713255 12.05057042 -2.08713255 12.05057042 -0.0625 11.3984375 C0.2675 10.7384375 0.5975 10.0784375 0.9375 9.3984375 C-0.7125 9.3984375 -2.3625 9.3984375 -4.0625 9.3984375 Z " fill="#085691" transform="translate(152.0625,15.6015625)"/>
<path d="M0 0 C3.69682659 0.21826282 6.13096243 1.25447183 9.125 3.5 C8.795 5.15 8.465 6.8 8.125 8.5 C7.09375 8.066875 6.0625 7.63375 5 7.1875 C1.01561414 6.01155628 1.01561414 6.01155628 -2.125 8.75 C-3.0325 9.6575 -3.94 10.565 -4.875 11.5 C-5.865 12.16 -6.855 12.82 -7.875 13.5 C-7.545 14.82 -7.215 16.14 -6.875 17.5 C-9.845 17.5 -12.815 17.5 -15.875 17.5 C-15.545 14.86 -15.215 12.22 -14.875 9.5 C-13.885 9.83 -12.895 10.16 -11.875 10.5 C-8.17051776 7.00587492 -8.17051776 7.00587492 -5.5625 2.6875 C-3.875 0.5 -3.875 0.5 0 0 Z " fill="#0460A3" transform="translate(51.875,14.5)"/>
<path d="M0 0 C2.63836567 2.38709275 4.49491232 4.7640615 6 8 C5.78398821 13.31518506 3.67071401 16.13938343 0.07421875 19.80078125 C-0.4286113 20.32262497 -0.93144135 20.84446869 -1.44950867 21.38212585 C-2.51632712 22.47854703 -3.59005703 23.56828054 -4.67016602 24.65161133 C-6.29874297 26.29858755 -7.87981531 27.98322503 -9.46289062 29.67382812 C-18.06887421 38.57727667 -18.06887421 38.57727667 -24.49609375 39.2578125 C-26.66554144 39.22666018 -28.83434833 39.1320099 -31 39 C-32.56344925 38.97355359 -34.12704793 38.95524059 -35.69067383 38.94311523 C-41.04648723 38.88797266 -46.39667922 38.72902035 -51.75 38.5625 C-53.62237857 38.50915634 -55.49477448 38.45641727 -57.3671875 38.40429688 C-61.91168802 38.27649724 -66.45587606 38.14053006 -71 38 C-71.33 37.34 -71.66 36.68 -72 36 C-70.8039917 36.01571045 -69.6079834 36.0314209 -68.37573242 36.04760742 C-63.94220707 36.10187061 -59.50871112 36.1363369 -55.07495117 36.16479492 C-53.15530462 36.1798898 -51.2356926 36.20036773 -49.31616211 36.22631836 C-46.55834436 36.26267109 -43.8009822 36.27971912 -41.04296875 36.29296875 C-40.18350143 36.30845261 -39.32403412 36.32393646 -38.43852234 36.33988953 C-37.63791885 36.34011612 -36.83731537 36.34034271 -36.01245117 36.34057617 C-35.3085173 36.34723801 -34.60458344 36.35389984 -33.87931824 36.36076355 C-31.42270628 35.88917974 -30.51836791 34.9492358 -29 33 C-29 32.34 -29 31.68 -29 31 C-29.99 31 -30.98 31 -32 31 C-32 30.34 -32 29.68 -32 29 C-28.44219804 29.60990891 -25.3171411 30.5783681 -22 32 C-22.61875 32.28875 -23.2375 32.5775 -23.875 32.875 C-26.13325765 33.93720042 -26.13325765 33.93720042 -28 36 C-22.12134176 36.54763813 -22.12134176 36.54763813 -16.99633789 33.95214844 C-16.08102295 33.0140332 -15.16570801 32.07591797 -14.22265625 31.109375 C-13.72583847 30.60835266 -13.22902069 30.10733032 -12.71714783 29.59112549 C-11.67681586 28.53440864 -10.646099 27.46814747 -9.62475586 26.39306641 C-8.06180137 24.74926523 -6.47112042 23.13695307 -4.87304688 21.52734375 C1.13249888 16.139476 1.13249888 16.139476 4 9 C3.26915551 7.10285168 3.26915551 7.10285168 2.0625 5.375 C0 2 0 2 0 0 Z " fill="#075792" transform="translate(84,6)"/>
<path d="M0 0 C7 1 7 1 8.92578125 2.23828125 C10.3971043 4.65125105 10.29672027 6.38417963 10.1875 9.1875 C10.16042969 10.08855469 10.13335937 10.98960938 10.10546875 11.91796875 C10.07066406 12.60503906 10.03585938 13.29210938 10 14 C10.66 14 11.32 14 12 14 C12.33 11.69 12.66 9.38 13 7 C13.33 7 13.66 7 14 7 C14 9.64 14 12.28 14 15 C12.35 15 10.7 15 9 15 C8.67 11.7 8.34 8.4 8 5 C7.01 5 6.02 5 5 5 C4.67 8.3 4.34 11.6 4 15 C2.68 15 1.36 15 0 15 C0 10.05 0 5.1 0 0 Z " fill="#064A7F" transform="translate(96,16)"/>
<path d="M0 0 C5.28 0 10.56 0 16 0 C16 0.33 16 0.66 16 1 C14.68 1.33 13.36 1.66 12 2 C15.63 2 19.26 2 23 2 C23.33 4.64 23.66 7.28 24 10 C26.64 7.36 29.28 4.72 32 2 C32 5.9726549 30.73393158 6.7592965 28 9.5625 C23.76137925 13.67389516 20.88486193 15.48378404 15 16 C14.34 15.34 13.68 14.68 13 14 C14.65 12.68 16.3 11.36 18 10 C18 10.66 18 11.32 18 12 C18.99 11.67 19.98 11.34 21 11 C21.33 8.36 21.66 5.72 22 3 C20.02 3.33 18.04 3.66 16 4 C15.67 4.99 15.34 5.98 15 7 C13.68 7 12.36 7 11 7 C10.67 6.01 10.34 5.02 10 4 C6.88387743 1.92258495 3.6648732 1.49975544 0 1 C0 0.67 0 0.34 0 0 Z M13 4 C14 6 14 6 14 6 Z " fill="#07538D" transform="translate(50,14)"/>
<path d="M0 0 C3.96 0 7.92 0 12 0 C12.13517903 2.75164432 12.23415251 5.49664521 12.3125 8.25 C12.3753418 9.41595703 12.3753418 9.41595703 12.43945312 10.60546875 C12.56285282 16.38057424 12.56285282 16.38057424 9.70703125 19.5234375 C6.22773319 21.42123644 3.90915477 21.43435053 0 21 C-0.99 20.34 -1.98 19.68 -3 19 C-2.505 17.515 -2.505 17.515 -2 16 C0.97 16.33 3.94 16.66 7 17 C6.67 15.68 6.34 14.36 6 13 C6.99 12.67 7.98 12.34 9 12 C9.33 13.32 9.66 14.64 10 16 C10.33 11.05 10.66 6.1 11 1 C9.35 1.33 7.7 1.66 6 2 C2.6875 1.5625 2.6875 1.5625 0 1 C0 0.67 0 0.34 0 0 Z " fill="#08568F" transform="translate(130,16)"/>
<path d="M0 0 C0.99386719 0.02707031 1.98773438 0.05414062 3.01171875 0.08203125 C4.15060547 0.13423828 4.15060547 0.13423828 5.3125 0.1875 C4.9825 2.8275 4.6525 5.4675 4.3125 8.1875 C2.3125 5.1875 2.3125 5.1875 1.3125 3.1875 C-0.68704746 3.14495644 -2.68791636 3.14669217 -4.6875 3.1875 C-5.94971698 4.23329619 -5.94971698 4.23329619 -5.875 6.5625 C-5.88798548 9.42194863 -5.88798548 9.42194863 -3.6875 12.1875 C-7.5625 11.3125 -7.5625 11.3125 -8.6875 10.1875 C-9.15484854 3.87829465 -9.15484854 3.87829465 -7.52734375 1.47265625 C-4.95442212 -0.32456502 -3.10292567 -0.10951502 0 0 Z " fill="#0461A5" transform="translate(135.6875,16.8125)"/>
<path d="M0 0 C0.33 0.99 0.66 1.98 1 3 C5.88760013 5.63930407 9.36202751 6.34518199 15 6 C14.67 6.66 14.34 7.32 14 8 C9.45194365 8.17835515 6.1205746 7.99785435 2 6 C2 6.66 2 7.32 2 8 C-2.29 8 -6.58 8 -11 8 C-10.67 7.34 -10.34 6.68 -10 6 C-7.36 6 -4.72 6 -2 6 C-2 4.68 -2 3.36 -2 2 C-1.34 1.34 -0.68 0.68 0 0 Z " fill="#07528B" transform="translate(46,25)"/>
<path d="M0 0 C2.33333333 0 4.66666667 0 7 0 C7 0.66 7 1.32 7 2 C6.34 2 5.68 2 5 2 C3.515 7.445 3.515 7.445 2 13 C1.34 13 0.68 13 0 13 C0 8.71 0 4.42 0 0 Z " fill="#055FA0" transform="translate(176,17)"/>
<path d="M0 0 C2.64 0.33 5.28 0.66 8 1 C7.01 4.96 6.02 8.92 5 13 C4.34 13 3.68 13 3 13 C2.92652344 11.96939453 2.92652344 11.96939453 2.8515625 10.91796875 C2.77679688 10.01691406 2.70203125 9.11585937 2.625 8.1875 C2.55539063 7.29417969 2.48578125 6.40085937 2.4140625 5.48046875 C2.13354964 2.75601501 2.13354964 2.75601501 0 0 Z " fill="#045FA1" transform="translate(103,17)"/>
<path d="M0 0 C0.625 2.375 0.625 2.375 1 5 C-1 7 -1 7 -3.625 7.125 C-4.40875 7.08375 -5.1925 7.0425 -6 7 C-5.67 6.34 -5.34 5.68 -5 5 C-2.9375 4.375 -2.9375 4.375 -1 4 C-2.65 4 -4.3 4 -6 4 C-6.33 3.34 -6.66 2.68 -7 2 C-7.66 3.65 -8.32 5.3 -9 7 C-9.33 7 -9.66 7 -10 7 C-10.125 4.625 -10.125 4.625 -10 2 C-6.80505194 -1.19494806 -4.22040044 -1.35655728 0 0 Z " fill="#08558E" transform="translate(153,22)"/>
<path d="M0 0 C0.99 0 1.98 0 3 0 C3 4.29 3 8.58 3 13 C2.01 13 1.02 13 0 13 C0 8.71 0 4.42 0 0 Z " fill="#0761A3" transform="translate(120,17)"/>
<path d="M0 0 C0.74362793 0.01047363 1.48725586 0.02094727 2.25341797 0.03173828 C3.46191406 0.04140625 3.46191406 0.04140625 4.69482422 0.05126953 C5.95746094 0.07640625 5.95746094 0.07640625 7.24560547 0.10205078 C8.51984375 0.11558594 8.51984375 0.11558594 9.81982422 0.12939453 C11.9202043 0.15299431 14.02043991 0.18886595 16.12060547 0.22705078 C16.12060547 0.55705078 16.12060547 0.88705078 16.12060547 1.22705078 C14.91662109 1.26443359 13.71263672 1.30181641 12.47216797 1.34033203 C10.89661536 1.40598006 9.32109593 1.4724278 7.74560547 1.53955078 C6.95154297 1.56210938 6.15748047 1.58466797 5.33935547 1.60791016 C3.25844966 1.70490153 1.18619215 1.95699903 -0.87939453 2.22705078 C-3.15674463 5.04215072 -3.15674463 5.04215072 -2.87939453 8.22705078 C-5.37939453 6.91455078 -5.37939453 6.91455078 -7.87939453 5.22705078 C-7.87939453 4.23705078 -7.87939453 3.24705078 -7.87939453 2.22705078 C-6.55939453 2.22705078 -5.23939453 2.22705078 -3.87939453 2.22705078 C-1.87939453 0.22705078 -1.87939453 0.22705078 0 0 Z " fill="#064D84" transform="translate(66.87939453125,2.77294921875)"/>
<path d="M0 0 C0.66 0 1.32 0 2 0 C3.04976964 3.14930893 3.10131595 5.38814456 3.0625 8.6875 C3.05347656 9.68136719 3.04445313 10.67523438 3.03515625 11.69921875 C3.02355469 12.45847656 3.01195313 13.21773437 3 14 C2.01 14 1.02 14 0 14 C0 9.38 0 4.76 0 0 Z " fill="#0560A3" transform="translate(97,17)"/>
<path d="M0 0 C0 3.58912412 -0.66436554 4.10857029 -3 6.6875 C-3.556875 7.31011719 -4.11375 7.93273437 -4.6875 8.57421875 C-5.120625 9.04472656 -5.55375 9.51523437 -6 10 C-6.66 9.67 -7.32 9.34 -8 9 C-8 8.34 -8 7.68 -8 7 C-11.96 7 -15.92 7 -20 7 C-20 6.67 -20 6.34 -20 6 C-18.97519531 6.06960937 -17.95039063 6.13921875 -16.89453125 6.2109375 C-9.59243549 6.84281888 -9.59243549 6.84281888 -2.890625 4.6640625 C-1.37474799 2.87409978 -1.37474799 2.87409978 0 0 Z " fill="#07528B" transform="translate(33,12)"/>
<path d="M0 0 C1.2065625 0.0309375 1.2065625 0.0309375 2.4375 0.0625 C3.0625 1.9375 3.0625 1.9375 3.4375 4.0625 C2.7775 4.7225 2.1175 5.3825 1.4375 6.0625 C-0.6875 5.6875 -0.6875 5.6875 -2.5625 5.0625 C-3.125 3.125 -3.125 3.125 -3.5625 1.0625 C-2.5625 0.0625 -2.5625 0.0625 0 0 Z " fill="#075792" transform="translate(122.5625,7.9375)"/>
<path d="M0 0 C1.98 0.99 1.98 0.99 4 2 C4 5.3 4 8.6 4 12 C2.68 11.34 1.36 10.68 0 10 C0.66 8.68 1.32 7.36 2 6 C1.34 5.67 0.68 5.34 0 5 C0 3.33333333 0 1.66666667 0 0 Z " fill="#0561A4" transform="translate(152,18)"/>
<path d="M0 0 C2.0625 0.4375 2.0625 0.4375 4 1 C3.01 1 2.02 1 1 1 C1 2.65 1 4.3 1 6 C2.65 6 4.3 6 6 6 C6 6.33 6 6.66 6 7 C0.25 7.125 0.25 7.125 -2 6 C-1.125 1.125 -1.125 1.125 0 0 Z " fill="#0461A5" transform="translate(146,23)"/>
<path d="M0 0 C0.33 0 0.66 0 1 0 C1.433125 1.3921875 1.433125 1.3921875 1.875 2.8125 C2.8875 6.09791667 2.8875 6.09791667 5 9 C3.125 8.6875 3.125 8.6875 1 8 C-1 5 -1 5 -0.625 2.3125 C-0.41875 1.549375 -0.2125 0.78625 0 0 Z " fill="#0462A7" transform="translate(185,21)"/>
</svg>
